<svg id="Layer_1" data-name="Layer 1" xmlns="http://www.w3.org/2000/svg" viewBox="0 0 1996.02 1803.73"><defs><style>.cls-1{fill:#fffdfd;}.cls-2{fill:#fff;}.cls-3{fill:#712cf9;}</style></defs><path class="cls-1" d="M2020.29,462.38a39.34,39.34,0,0,0-1,4.62c-.22,2.22-.18,4.47-.27,6.7-.34,8.94-.5,17.89-1.09,26.8s-1.61,17.8-2.49,26.69c-.71,7.15-1.43,14.29-2.26,21.42-.61,5.23-1.34,10.45-2.16,15.65-1.79,11.5-3.61,23-5.54,34.49-3.13,18.56-6.53,37.07-10.52,55.47q-9.23,42.6-21.51,84.41a1157.48,1157.48,0,0,1-705.81,756.82,1132,1132,0,0,1-138.75,42c-18.17,4.25-36.46,8-54.79,11.53-14.56,2.78-29.25,4.91-43.92,7.14-10.88,1.65-21.79,3.11-32.71,4.46-7.44.92-14.92,1.51-22.39,2.21-9.37.89-18.74,1.84-28.12,2.59-6.68.53-13.39.83-20.09,1.12-14.36.63-28.72,1.28-43.08,1.72-9.9.3-19.81.36-29.72.35-16,0-32,0-47.93-.28-8-.15-15.93-1-23.9-1.49-6.21-.41-12.42-.79-18.63-1.31-4.61-.38-9.2-.91-13.8-1.44-6.18-.71-12.37-1.41-18.53-2.25-9.64-1.31-19.31-2.48-28.88-4.17a508.26,508.26,0,0,1-393.69-340.1,489.93,489.93,0,0,1-17.76-70c-2-11.47-3.74-23-4.94-34.57-1.44-13.82-3-27.64-2.54-41.55.27-8.94,1-17.86,1.55-26.78q.5-7.39,1.27-14.78c.6-5.55,1.21-11.11,2.06-16.63,1.81-11.82,3.89-23.6,6.46-35.3a492.57,492.57,0,0,1,372-375.25c13.23-3,26.58-5.39,40-7.43,6.62-1,13.32-1.4,20-2.27,12.37-1.62,24.83-1.93,37.26-2.47,9.72-.42,19.48.14,29.22.29,1.75,0,3.51.18,5.26.23,12,.29,23.89,1.47,35.79,2.82a490.32,490.32,0,0,1,254.8,108.23,493.72,493.72,0,0,1,166.33,263.71c3.64,14.72,6.61,29.58,8.81,44.58,1.36,9.31,2.19,18.69,3.23,28.05a389.7,389.7,0,0,1,1.83,52.15,206.3,206.3,0,0,1-3.62,32.31,174.63,174.63,0,0,1-11.8,39.35c-7.48,17-17.64,32.2-32.13,44.15a90.19,90.19,0,0,1-45,19.88,117,117,0,0,1-30.55.06,112.37,112.37,0,0,1-28.29-6.87c-20.53-8-36.36-21.58-47.79-40.38-7.89-13-12.84-27.08-15.89-41.88a197.13,197.13,0,0,1-3.86-40q0-103.54,0-207.08c0-22.37-5.12-43.42-16.19-62.81-19.26-33.75-48-55-86-63.34a123.31,123.31,0,0,0-26.62-2.79q-87.72,0-175.44,0a299.7,299.7,0,0,0-38.67,2.68Q619.94,775.32,552,831.7c-38.24,31.65-66.78,70.64-86.16,116.34A301,301,0,0,0,447,1011.7q-2.28,12.48-3.37,25.14c-1,11.62-1.89,23.25-1.43,34.92.41,10.36,1.11,20.7,2.37,31A305.31,305.31,0,0,0,461.07,1171a303.87,303.87,0,0,0,161.22,172.48A292.65,292.65,0,0,0,691.62,1365c9.44,1.68,18.91,2.9,28.44,3.91,8.28.88,16.59,1,24.87,1.17a188.31,188.31,0,0,0,27.26-1.18c6-.75,12.06-1.25,18.06-2.05a279.18,279.18,0,0,0,51.21-11.93,303.72,303.72,0,0,0,124.88-78.56c3.89-4,7.73-8.09,10.68-12.9a21,21,0,0,1,1.72-2.09,10.26,10.26,0,0,1,2,1.87c7.43,12.46,17,23.16,27.37,33.18A214.33,214.33,0,0,0,1110.93,1352a206.08,206.08,0,0,0,28.35,4.39c6.55.57,13.07.7,19.62.81,10.25.18,20.37-1.11,30.48-2.67a230,230,0,0,0,39.91-9.86,242.67,242.67,0,0,0,162.54-199.47,233,233,0,0,0,1.83-32c-.09-8.3,0-16.62-.14-24.92-.24-10.86-.51-21.72-1.15-32.56-.54-9.24-1.53-18.45-2.49-27.65-.94-9-1.8-18.11-3.2-27.09-2-12.76-4.13-25.51-6.74-38.16-3.92-19.06-8.27-38-13.56-56.79A617.67,617.67,0,0,0,952.11,482.87a600,600,0,0,0-68.8-16.69c-11.46-2.06-23-3.51-34.54-5.17-9.8-1.41-19.66-2.12-29.52-3-23.6-2.09-47.23-2-70.87-1.42-9.57.26-19.14.94-28.67,1.8A625.53,625.53,0,0,0,564,492.47,617.63,617.63,0,0,0,224.44,789.71a619.12,619.12,0,0,0-52.62,142c-3.48,14.59-6.44,29.3-8.71,44.12-1.67,10.88-2.86,21.83-4.2,32.75-1.57,12.84-2.3,25.74-2.94,38.67-.59,11.82-.86,23.63-.55,35.44.26,9.58,1,19.14,1.55,28.7.32,5.41.66,10.83,1.17,16.24.59,6.35,1.24,12.7,2.09,19,1,7.74,2.32,15.45,3.5,23.18,2.28,15,5.37,29.83,8.93,44.56a625.05,625.05,0,0,0,423.18,450.86,610.83,610.83,0,0,0,72,17.66c12.55,2.27,25.2,4,37.84,5.74,7.9,1.06,15.89,1.49,23.83,2.26,11.61,1.11,23.24,1.7,34.9,1.95,5.89.13,11.77.88,17.66,1.35,1.27.1,2.55.26,3.82.3l40.71,1.23c5.59.17,11.18.47,16.76.42,16.62-.17,33.23-.36,49.84-.8,10-.26,20.09-1,30.13-1.51,7.18-.38,14.36-.68,21.53-1.15,6.37-.42,12.72-1,19.08-1.58,4-.34,7.95-.74,11.92-1.11,7.78-.73,15.58-1.36,23.35-2.19,6.5-.7,13-1.63,19.46-2.48,8.07-1,16.14-2,24.2-3.2,8.68-1.24,17.36-2.53,26-4,12.26-2.11,24.51-4.28,36.72-6.66q36.41-7.11,72.36-16.28,54.32-13.87,107.26-32.26,56.13-19.53,110.28-44,48.69-22,95.46-47.91,37.13-20.54,72.82-43.46a44.74,44.74,0,0,1,4.15-2.36,1.79,1.79,0,0,1,2.25,1.23,3.69,3.69,0,0,1-.64,3.61c-.72.85-1.47,1.68-2.24,2.49a1034.57,1034.57,0,0,1-444,279.53q-45,14.22-91.1,24.22c-15.59,3.35-31.29,6.2-47,9-11.62,2.07-23.29,3.86-35,5.49-9.32,1.3-18.69,2.19-28,3.21-8.41.91-16.81,1.82-25.24,2.58-5.88.52-11.78.81-17.68,1.16q-15.3.9-30.6,1.73c-1.12.06-2.24.1-3.36.1-22,0-44.11.55-66.14-.16-18.37-.6-36.74-.17-55.1-.83-8.13-.29-16.25-1-24.38-1.51q-7.87-.54-15.75-1.25c-5.08-.46-10.16-1-15.23-1.59-5.7-.66-11.4-1.34-17.09-2.16-9.15-1.31-18.33-2.51-27.43-4.18-19.77-3.61-39.42-7.86-58.86-13A727.22,727.22,0,0,1,43.05,1257q-6.45-27.49-10.68-55.43c-1.7-11.2-2.93-22.47-4.16-33.72-1.05-9.52-2-19.06-2.63-28.61-.89-13.71-1.38-27.44-1.3-41.18.08-15.82,0-31.64.34-47.45.18-9.1.93-18.18,1.49-27.26.36-5.9.8-11.79,1.28-17.68.35-4.45.75-8.9,1.27-13.34q1.13-9.75,2.47-19.47c1-7.43,1.86-14.89,3.22-22.25,2.59-14.12,5.22-28.24,8.31-42.26A733.62,733.62,0,0,1,84.91,777.28a751.86,751.86,0,0,1,239-305.16,711.73,711.73,0,0,1,81.24-52.52,736.08,736.08,0,0,1,214.91-78.88c13-2.56,26-4.9,39.15-6.63,8.85-1.17,17.7-2.42,26.57-3.48,4.75-.57,9.53-.83,14.31-1.22l19.56-1.59c.64-.05,1.28-.14,1.91-.16,12.78-.35,25.55-1,38.32-1q120.09-.15,240.16-.11c12,0,24-.49,35.92-1.14,9.23-.51,18.44-1.56,27.64-2.52,9-.95,18.1-1.86,27.09-3.22,17.66-2.66,35.22-5.93,52.64-10a661.31,661.31,0,0,0,98.09-30.88,658.32,658.32,0,0,0,161.2-93.29,665.59,665.59,0,0,0,73.46-67.27c2.08-2.21,4-4.55,6.23-6.64,3-2.84,6.35-3.35,9.68-1.67a7.54,7.54,0,0,1,4.6,6.77,57.62,57.62,0,0,1-.23,7.66c-.57,5.71-1.2,11.42-2,17.11-1.07,7.58-2.34,15.13-3.5,22.7-2.35,15.3-5.54,30.44-9.13,45.5a658.52,658.52,0,0,1-83.87,199.05c-.86,1.35-1.77,2.67-2.54,4.06-2.12,3.82-2.32,7.68.4,11.24s6.27,4.57,10.64,3.59c13.55-3,27-6.54,40.32-10.39a705.44,705.44,0,0,0,133.89-54.09,708.07,708.07,0,0,0,129.37-87.87,707.85,707.85,0,0,0,129.14-145.4,705.52,705.52,0,0,0,55.79-100.41c1-2.19,2-4.37,3-6.54,2-4.27,5.39-6.73,10.11-6.88a11.26,11.26,0,0,1,10.69,6c.4.69.76,1.4,1.13,2.11a896.77,896.77,0,0,1,79.75,221c3.51,16,6.73,32.17,9.1,48.44,1.62,11.21,3.3,22.41,4.72,33.64,1.36,10.76,2.5,21.55,3.57,32.35.57,5.71.6,11.48,1.21,17.19,1,9.08.65,18.19,1,27.29.09,2.23.07,4.48,1.13,6.55Z" transform="translate(-24.27 -16.02)"/><path class="cls-2" d="M1005.33,1039.44c.07,1.89.18,3.31.18,4.73,0,4.79,0,9.59,0,14.38,0,3.73-.2,3.91-3.89,4.69A44.84,44.84,0,0,0,976.46,1078a67.88,67.88,0,0,0-9.1,13.48,121.86,121.86,0,0,0-10.49,30.22,255.65,255.65,0,0,0-5.11,37.42c-.88,12.46-.82,24.9-.55,37.35a48.79,48.79,0,0,1-9.4,30.55,46.32,46.32,0,0,1-30.48,19,41.77,41.77,0,0,1-7.17.31H766.61q-75.72,0-151.45,0a43,43,0,0,1-23.63-6.62c-12.72-8.08-20.15-19.69-22.6-34.56a68.47,68.47,0,0,1-.47-14.52c.26-5.4.32-10.8.12-16.2-.31-8.41-.7-16.83-1.5-25.21-1.64-17.38-4.77-34.45-11.49-50.69a75.65,75.65,0,0,0-11-19,45.27,45.27,0,0,0-26.33-16.33c-3.85-.82-4.06-1-4.11-4.55-.08-5.43,0-10.86,0-16.29a19.89,19.89,0,0,1,.49-3c1.44-.43,2.76-.94,4.14-1.23,11.34-2.37,20.09-8.68,27-17.72a80.83,80.83,0,0,0,11.61-21.93,166.94,166.94,0,0,0,7.89-32,286,286,0,0,0,3-33.84c.28-8.63.28-17.22,0-25.85-.54-16.23,5.07-30.07,17.5-40.78a42.33,42.33,0,0,1,24.67-10.57c3.82-.31,7.65-.57,11.48-.57q136.59,0,273.18,0c4.46,0,8.93.26,13.4.52a41.6,41.6,0,0,1,22.17,8.16c11.2,8.06,17.69,19.12,20,32.6a61,61,0,0,1,.41,10c0,4.15-.09,8.31-.13,12.46a320.45,320.45,0,0,0,1.7,34.9,212.41,212.41,0,0,0,5.9,33.42,107,107,0,0,0,10.9,27,54.88,54.88,0,0,0,13.23,15.63,42.27,42.27,0,0,0,17.09,8.28C1001.53,1038.4,1003.2,1038.89,1005.33,1039.44Z" transform="translate(-24.27 -16.02)"/><path class="cls-3" d="M648.94,1202.76A10.89,10.89,0,0,1,638,1191.82V895.15a11.09,11.09,0,0,1,3.19-8.2,10.57,10.57,0,0,1,7.75-3.19H781.09q36.92,0,60.16,11.16t34.41,30.77q11.16,19.59,11.16,45.57,0,17.32-6.15,30.3a68.07,68.07,0,0,1-15,21.19,83.36,83.36,0,0,1-17.55,12.76q17.77,8.21,31.45,27.35t13.67,45.57q0,27.35-12.3,48.76t-36.46,33.49q-24.16,12.09-59.7,12.08Zm53.06-188h71.6q24.17,0,36.25-11.63t12.09-30.33q0-19.15-12.09-30.09t-36.25-11H702Zm0,140h76.51q24.74,0,37.56-13.51t12.83-32.76q0-20.16-13.06-33.44t-37.33-13.29H702Z" transform="translate(-24.27 -16.02)"/></svg>